# xmcd
#
# Track frame offsets:
#	150
#	11201
#	23867
#	38154
#	50852
#	62337
#	75888
#	87333
#	99017
#	112907
#	123024
#	137025
#	147810
#	160596
#	171532
#	183723
#	197327
#	208617
#	218422
#	231610
#	242602
#	255500
#	269417
#	282083
#	294790
#
# Disc length: 4091 seconds
#
# Revision: 5
# Processed by: cddbd v1.5.2PL0 Copyright (c) Steve Scherf et al.
# Submitted via: audiograbber 1.83.01
#
DISCID=520ff919
DTITLE=Various Artist - Essential Blues Anthology CD1
DYEAR=2008
DGENRE=Blues
TTITLE0=Screamin' Jay Hawkins - I Put A Spell On You
TTITLE1=Muddy Waters - I Just Want To Make Love To You
TTITLE2=Elmore James - Dust My Broom
TTITLE3=B.B.King - Every Day I Have The Blues
TTITLE4=Chuck Willis - C.C. Rider
TTITLE5=Bo Diddley - I'm A Man
TTITLE6=Smiley Lewis - I Hear You Knocking
TTITLE7=John Lee Hooker - Queen Bee
TTITLE8=Howlin' Wolf - Smoke Stack Lightning
TTITLE9=Jimmy Reed - Ain't That Loving You Baby
TTITLE10=Otis Rush - I Can't Quit You Baby
TTITLE11=Little Walter And His Jukes - Who
TTITLE12=Sonny Boy Williamson - Keep It To Yourself
TTITLE13=Smokey Hogg - When I've Been Drinkin'
TTITLE14=Bobby Bland - It's My Life
TTITLE15=Guitar Slim And His Band - The Things That I Used To Do
TTITLE16=T-Bone Walker - Wanderin' Heart
TTITLE17=Lil' Son Jackson - Thrill Me Baby
TTITLE18=Memphis Slim - Memphis Slim U.S.A.
TTITLE19=J.B.Lenoir - Mama Talk To Your Daughter
TTITLE20=Muddy Waters - I'm Your Hoochie Coochie Man
TTITLE21=Willie Dixon And The All Stars - Walking The Blues
TTITLE22=Jimmy Rogers - Walking By Myself
TTITLE23=Jimmy McCracklin And His Blues Blasters - Blues Blasters Boogie
TTITLE24=Junior Wells - Two-Headed Woman
EXTD=
EXTT0=
EXTT1=Released as 'Just Make Love To Me'
EXTT2=
EXTT3=
EXTT4=
EXTT5=
EXTT6=
EXTT7=
EXTT8=
EXTT9=
EXTT10=
EXTT11=
EXTT12=
EXTT13=
EXTT14=
EXTT15=
EXTT16=
EXTT17=
EXTT18=
EXTT19=
EXTT20=
EXTT21=
EXTT22=
EXTT23=
EXTT24=
PLAYORDER=
